<svg width="128" height="128" viewBox="0 0 128 128" xmlns="http://www.w3.org/2000/svg">
  <rect width="128" height="128" rx="24" fill="#4285f4"/>
  <g transform="translate(24, 32)">
    <!-- Brain/neural network representation -->
    <circle cx="15" cy="15" r="6" fill="white" opacity="0.9"/>
    <circle cx="45" cy="10" r="6" fill="white" opacity="0.9"/>
    <circle cx="65" cy="15" r="6" fill="white" opacity="0.9"/>
    <circle cx="25" cy="35" r="6" fill="white" opacity="0.9"/>
    <circle cx="55" cy="35" r="6" fill="white" opacity="0.9"/>
    <circle cx="15" cy="55" r="6" fill="white" opacity="0.9"/>
    <circle cx="45" cy="50" r="6" fill="white" opacity="0.9"/>
    <circle cx="65" cy="55" r="6" fill="white" opacity="0.9"/>

    <!-- Connections -->
    <line x1="15" y1="15" x2="45" y2="10" stroke="white" stroke-width="2" opacity="0.5"/>
    <line x1="45" y1="10" x2="65" y2="15" stroke="white" stroke-width="2" opacity="0.5"/>
    <line x1="15" y1="15" x2="25" y2="35" stroke="white" stroke-width="2" opacity="0.5"/>
    <line x1="45" y1="10" x2="25" y2="35" stroke="white" stroke-width="2" opacity="0.5"/>
    <line x1="45" y1="10" x2="55" y2="35" stroke="white" stroke-width="2" opacity="0.5"/>
    <line x1="65" y1="15" x2="55" y2="35" stroke="white" stroke-width="2" opacity="0.5"/>
    <line x1="25" y1="35" x2="15" y2="55" stroke="white" stroke-width="2" opacity="0.5"/>
    <line x1="25" y1="35" x2="45" y2="50" stroke="white" stroke-width="2" opacity="0.5"/>
    <line x1="55" y1="35" x2="45" y2="50" stroke="white" stroke-width="2" opacity="0.5"/>
    <line x1="55" y1="35" x2="65" y2="55" stroke="white" stroke-width="2" opacity="0.5"/>
    <line x1="45" y1="50" x2="65" y2="55" stroke="white" stroke-width="2" opacity="0.5"/>
  </g>
</svg>
